<svg xmlns="http://www.w3.org/2000/svg" viewBox="0 0 306.61 51.68"><defs><style>.cls-1{fill:#fff;}</style></defs><g id="Layer_2" data-name="Layer 2"><g id="Layer_1-2" data-name="Layer 1"><path class="cls-1" d="M9.57,9.57V24L0,23.89V0H17.62a25.23,25.23,0,0,1,9.19,1.7,25.78,25.78,0,0,1,7.85,4.78L27.79,13.2A16,16,0,0,0,17.62,9.57Zm8.05,32.54a16.13,16.13,0,0,0,10.29-3.66l6.81,6.78A25.93,25.93,0,0,1,26.84,50a25.51,25.51,0,0,1-9.22,1.68H0v-24l9.57.06V42.11ZM33.91,25.85a16.08,16.08,0,0,0-3.42-9.93l6.87-6.78a26.42,26.42,0,0,1,4.49,7.77,25.73,25.73,0,0,1-4.49,25.56l-6.81-6.81A15.88,15.88,0,0,0,33.91,25.85Z"/><path class="cls-1" d="M60.76,24H51.19V.06H87.73L83.07,9.63H60.76V24Zm0,10.23v8H87.61L83,51.68H51.19V27.82h9.57v6.39ZM73,30.7H64.57V21.1h13Z"/><path class="cls-1" d="M105,0V51.68H95.45V0Zm3.81,42.11h22.1l-4.57,9.57H108.83Z"/><path class="cls-1" d="M151.34.06V51.68h-9.57v-42H126.48L128,6.48l.42-.85.15-.24L131.08.06h20.26Zm3.81,0h11.54V9.63H155.15Z"/><path class="cls-1" d="M181.76,29.09l-10.9,22.59H160.21L185.12,0l24.95,51.68H175.13l4.6-9.6h15.05l-9.66-19.95Z"/><path class="cls-1" d="M270.16,9.63h-15l6.27,13v-.06l1.24,2.55-5.39,11L239.89,0h34.93ZM259.41,40.51,279.09,0h10.66L264.8,51.68Zm5.39-10.93v-.06l9.66-19.89Z"/><path class="cls-1" d="M296.61,0h9.71V0l.06,42.11h0l.23,9.57h-9.86V9.57"/></g></g></svg>