<svg xmlns="http://www.w3.org/2000/svg" viewBox="0 0 52.3 50.78"><defs><style>.cls-1{fill:#fff;}</style></defs><g id="Layer_2" data-name="Layer 2"><g id="Layer_1-2" data-name="Layer 1"><path class="cls-1" d="M43,15.57a25.17,25.17,0,0,1,3,.58,9.07,9.07,0,0,1-2.8,17.69H37c-.09-.72-.24-1.33.3-2a5.35,5.35,0,0,0,.62-6.46,5.42,5.42,0,0,0-6.07-2.32c-.14,0-.28.08-.54.16a5.56,5.56,0,0,0-1.9-5.64,5.18,5.18,0,0,0-3.74-1.18c-3.19.21-4.9,2.54-4.93,6.6a15.66,15.66,0,0,0-3.14,0,5.33,5.33,0,0,0-3,8.53c.69.87.69.87.59,2.23H13.8a45.46,45.46,0,0,1-6.51-.22A8.85,8.85,0,0,1,0,24.1a9.08,9.08,0,0,1,8.33-8.38L9,15.66A13,13,0,0,1,11.54,4.87,12.77,12.77,0,0,1,18.05.51a13.1,13.1,0,0,1,15.12,6.4c2.88-1.41,5.67-1.35,8.12.86S44.05,12.64,43,15.57Z"/><path class="cls-1" d="M34.11,38.27h6.32c1.2,0,1.28.09,1.28,1.26,0,1.85,0,3.7,0,5.55a.94.94,0,0,0,.54,1A2.46,2.46,0,0,1,43.43,49,2.59,2.59,0,0,1,41,50.78a2.56,2.56,0,0,1-2.46-1.86,2.46,2.46,0,0,1,1.17-2.84,1,1,0,0,0,.55-1c0-1.75,0-3.51,0-5.38H33.89c-1.12,0-1.27-.16-1.27-1.31,0-2.3,0-4.59,0-6.89A1.06,1.06,0,0,0,32,30.39,2.39,2.39,0,0,1,31,27.54a2.48,2.48,0,0,1,2.4-1.79,2.51,2.51,0,0,1,2.42,1.78,2.42,2.42,0,0,1-1.09,2.86,1.07,1.07,0,0,0-.62,1.13c0,1.94,0,3.87,0,5.81C34.07,37.62,34.09,37.91,34.11,38.27Z"/><path class="cls-1" d="M11.86,39.72c0,2,0,3.8,0,5.64,0,.22.26.49.47.63a2.55,2.55,0,0,1-1.19,4.79,2.54,2.54,0,0,1-2.44-1.87A2.59,2.59,0,0,1,9.93,46a1.32,1.32,0,0,0,.46-.91c0-1.87,0-3.75,0-5.63,0-1,.19-1.18,1.21-1.19h6.17a1.21,1.21,0,0,0,.24-.07c0-.23,0-.49,0-.74V32.53c0-1,.12-1.79-1-2.48s-1.09-2.61,0-3.61a2.51,2.51,0,0,1,3.71.26,2.45,2.45,0,0,1-.53,3.61,1.4,1.4,0,0,0-.73,1.43c0,2.29,0,4.58,0,6.88,0,.81-.31,1.12-1.12,1.11C16.28,39.7,14.14,39.72,11.86,39.72Z"/><path class="cls-1" d="M26.08,19.3a2.49,2.49,0,0,1,2.4,1.79,2.38,2.38,0,0,1-1,2.8,1.22,1.22,0,0,0-.68,1.28q0,8.17,0,16.35a1.09,1.09,0,0,0,.59,1.14A2.37,2.37,0,0,1,28.5,45.5a2.53,2.53,0,0,1-2.39,1.82,2.56,2.56,0,0,1-2.44-1.75,2.46,2.46,0,0,1,1.12-2.93,1,1,0,0,0,.58-1.07c0-5.51,0-11,0-16.53a1.11,1.11,0,0,0-.64-1.11,2.44,2.44,0,0,1-1.05-2.88A2.5,2.5,0,0,1,26.08,19.3Z"/></g></g></svg>