<?xml version="1.0" encoding="UTF-8"?>
<svg id="Layer_2" data-name="Layer 2" xmlns="http://www.w3.org/2000/svg" viewBox="0 0 779.45 681.55">
  <g id="Layer_1-2" data-name="Layer 1">
    <g>
      <path d="M390.41,236.53l-100.59,304.3h201.19l-100.59-304.3ZM390.67,246.51l95.79,289.77h-191.58l95.79-289.77Z"/>
      <path d="M390.41,227.33l-110.93,319.18h221.86l-110.93-319.18ZM390.7,237.81l105.63,303.93h-211.27l105.63-303.93Z"/>
      <path d="M390.41,217.69l-122.33,334.78h244.67l-122.33-334.78ZM390.73,228.67l116.49,318.79h-232.98l116.49-318.79Z"/>
      <path d="M390.41,207.57l-134.91,351.14h269.81l-134.91-351.14ZM390.76,219.09l128.46,334.37h-256.92l128.46-334.37Z"/>
      <path d="M390.41,196.95l-148.77,368.3h297.54l-148.77-368.3ZM390.8,209.04l141.66,350.71H249.14l141.66-350.71Z"/>
      <path d="M390.41,185.82l-164.06,386.3h328.12l-164.06-386.3ZM390.84,198.5l156.22,367.85H234.62l156.22-367.85Z"/>
      <path d="M390.41,174.15l-180.92,405.18h361.84l-180.92-405.18ZM390.89,187.44l172.28,385.83H218.61l172.28-385.83Z"/>
      <path d="M390.41,161.9l-199.51,424.98h399.03l-199.51-424.98ZM390.93,175.85l189.98,404.69H200.95l189.98-404.69Z"/>
      <path d="M390.41,149.06l-220.02,445.76h440.04l-220.02-445.76ZM390.99,163.68l209.51,424.47H181.48l209.51-424.47Z"/>
      <path d="M390.41,135.58l-242.63,467.54h485.26l-242.63-467.54ZM391.05,150.93l231.04,445.21H160.01l231.04-445.21Z"/>
      <path d="M390.41,121.45L122.85,611.85h535.13L390.41,121.45ZM391.11,137.54l254.79,466.97H136.33l254.79-466.97Z"/>
    </g>
    <polygon points="543.03 269.39 466.58 269.6 389.75 131.9 387.49 133.37 113.75 615.29 665.36 613.83 547.89 409.54 285.58 407.97 326.9 339.21 569.52 338.2 584.94 339.98 779.45 679.48 0 681.55 387.19 0 543.03 269.39"/>
  </g>
</svg>