<svg xmlns="http://www.w3.org/2000/svg" viewBox="0 0 779.45 681.55"><defs><style>.cls-1{fill:#fff;}</style></defs><g id="Layer_2" data-name="Layer 2"><g id="Layer_2-2" data-name="Layer 2"><g id="Layer_1-2" data-name="Layer 1-2"><path class="cls-1" d="M390.41,236.53,289.82,540.83H491L390.42,236.53Zm.26,10,95.79,289.77H294.88l95.79-289.77Z"/><path class="cls-1" d="M390.41,227.33,279.48,546.51H501.34L390.41,227.33Zm.29,10.48L496.33,541.74H285.06L390.69,237.81Z"/><path class="cls-1" d="M390.41,217.69,268.08,552.47H512.75L390.42,217.69Zm.32,11L507.22,547.46h-233L390.73,228.67Z"/><path class="cls-1" d="M390.41,207.57,255.5,558.71H525.31L390.4,207.57Zm.35,11.52L519.22,553.46H262.3L390.76,219.09Z"/><path class="cls-1" d="M390.41,197,241.64,565.25H539.18L390.41,197ZM390.8,209,532.46,559.75H249.14L390.8,209Z"/><path class="cls-1" d="M390.41,185.82,226.35,572.12H554.47L390.41,185.82Zm.43,12.68L547.06,566.35H234.62L390.84,198.5Z"/><path class="cls-1" d="M390.41,174.15,209.49,579.33H571.33L390.41,174.15Zm.48,13.29L563.17,573.27H218.61L390.89,187.44Z"/><path class="cls-1" d="M390.41,161.9l-199.51,425h399l-199.51-425Zm.52,13.95,190,404.69H201l190-404.69Z"/><path class="cls-1" d="M390.41,149.06l-220,445.76h440l-220-445.76Zm.58,14.62L600.5,588.15h-419L391,163.68Z"/><path class="cls-1" d="M390.41,135.58,147.78,603.12H633L390.41,135.58Zm.64,15.35,231,445.21H160l231-445.21Z"/><path class="cls-1" d="M390.41,121.45,122.85,611.85H658Zm.7,16.09,254.79,467H136.33l254.79-467Z"/><polygon class="cls-1" points="543.03 269.39 466.58 269.6 389.75 131.9 387.49 133.37 113.75 615.29 665.36 613.83 547.89 409.54 285.58 407.97 326.9 339.21 569.52 338.2 584.94 339.98 779.45 679.48 0 681.55 387.19 0 543.03 269.39"/></g></g></g></svg>