<?xml version="1.0" encoding="UTF-8"?>
<svg version="1.1" xmlns="http://www.w3.org/2000/svg" width="447" height="412">
<path d="M0 0 C147.51 0 295.02 0 447 0 C447 135.96 447 271.92 447 412 C299.49 412 151.98 412 0 412 C0 276.04 0 140.08 0 0 Z " fill="#000000" transform="translate(0,0)"/>
<path d="M0 0 C2.83958631 2.66140132 4.86851561 5.17258565 6.7421875 8.578125 C7.24339111 9.47877686 7.74459473 10.37942871 8.26098633 11.30737305 C8.79361084 12.27843994 9.32623535 13.24950684 9.875 14.25 C11.04147544 16.34588389 12.20949225 18.44091053 13.37890625 20.53515625 C14.27826904 22.14801514 14.27826904 22.14801514 15.19580078 23.79345703 C18.00882899 28.79295805 20.90851208 33.74045559 23.8125 38.6875 C28.88418729 47.34620188 33.90202582 56.03429909 38.875 64.75 C39.20528198 65.32881927 39.53556396 65.90763855 39.87585449 66.5039978 C41.5607133 69.45732399 43.24470866 72.41114141 44.92822266 75.36523438 C48.12629361 80.976711 51.32830009 86.5859394 54.53155518 92.19445801 C55.5246465 93.9337054 56.51697703 95.67338712 57.50927734 97.41308594 C58.43474365 99.0339209 58.43474365 99.0339209 59.37890625 100.6875 C60.27053467 102.24984375 60.27053467 102.24984375 61.18017578 103.84375 C63.65366781 108.13370237 66.18688189 112.3878486 68.73022461 116.63671875 C70 119 70 119 70 121 C58.78 121 47.56 121 36 121 C28.54007054 107.7815285 21.16562871 94.51622126 13.80078125 81.24462891 C11.22285654 76.599751 8.64274645 71.95608844 6.0625 67.3125 C5.26170567 65.87110102 4.46092285 64.42969564 3.66015625 62.98828125 C3.11230469 62.00214844 2.56445312 61.01601562 2 60 C-0.81106979 63.37389635 -3.14809446 66.76403194 -5.3203125 70.578125 C-5.93253662 71.64724121 -6.54476074 72.71635742 -7.17553711 73.81787109 C-7.81885986 74.95047363 -8.46218262 76.08307617 -9.125 77.25 C-10.14350534 79.03202389 -11.16356565 80.8131513 -12.1837616 82.59420776 C-12.8590422 83.77324208 -13.53385951 84.95254187 -14.20820618 86.1321106 C-16.74647682 90.56953291 -19.32843433 94.97897261 -21.9375 99.375 C-28.02229597 109.66236514 -33.91451497 120.06118952 -39.83242798 130.4450531 C-42.26060353 134.70523698 -44.69329508 138.96281323 -47.12890625 143.21875 C-53.89913618 155.05046147 -60.64723436 166.89410058 -67.34619141 178.76635742 C-72.37554222 187.67591723 -77.45064804 196.55898102 -82.53369141 205.43798828 C-84.45572794 208.7962719 -86.37544006 212.15588071 -88.29492188 215.515625 C-89.26873944 217.22013252 -90.24269886 218.92455899 -91.21679688 220.62890625 C-93.78145351 225.11622805 -96.34508195 229.6041326 -98.90670776 234.09318542 C-100.28558997 236.50939848 -101.66493464 238.9253474 -103.04431152 241.34127808 C-104.01464806 243.04117019 -104.98439025 244.74140153 -105.95410156 246.44165039 C-111.59432563 256.31931459 -117.30055906 266.1555111 -123 276 C-41.49 275.67 40.02 275.34 124 275 C102.47045836 225.54235461 102.47045836 225.54235461 62.38479614 186.10256958 C52.32171228 183.55633013 42.60359 183.6335005 32.3046875 183.7421875 C30.42148408 183.75034612 28.53827362 183.75700115 26.65505981 183.76223755 C21.73063632 183.77922962 16.8064957 183.8133994 11.88220215 183.85229492 C3.99659889 183.91183307 -3.88914557 183.94560811 -11.77489853 183.97806168 C-14.50837939 183.99187454 -17.2417099 184.01348427 -19.97512817 184.03634644 C-28.37328398 184.09270782 -36.6502383 184.06129885 -45 183 C-43.66426723 179.58320734 -42.21710611 176.49075522 -40.3203125 173.34765625 C-39.54494141 172.05891602 -39.54494141 172.05891602 -38.75390625 170.74414062 C-37.94759766 169.41672852 -37.94759766 169.41672852 -37.125 168.0625 C-36.59519531 167.18142578 -36.06539062 166.30035156 -35.51953125 165.39257812 C-34.02628881 162.91927954 -32.53148052 160.44982906 -31 158 C-30.53024246 156.9744249 -30.06048492 155.94884979 -29.57649231 154.89219666 C-26.70866856 151.67297096 -26.31728741 151.55593017 -22.26271057 151.26501465 C-20.25933056 151.24150299 -18.25539732 151.25141892 -16.25219727 151.28710938 C-15.15749115 151.28302063 -14.06278503 151.27893188 -12.93490601 151.27471924 C-9.31139591 151.26869646 -5.6897004 151.30567721 -2.06640625 151.34375 C0.44938201 151.34986496 2.96517704 151.35361737 5.48097229 151.35510254 C10.75617261 151.36431332 16.03090802 151.39239822 21.3059082 151.4375 C28.069499 151.49521286 34.83267007 151.51594491 41.59648037 151.5248642 C46.79263627 151.53317746 51.98869487 151.55281693 57.1848011 151.57661438 C59.67868331 151.58801384 62.17257484 151.59753322 64.66647148 151.60514832 C68.15208221 151.61889402 71.63731347 151.64616889 75.12280273 151.67773438 C76.67136208 151.68108795 76.67136208 151.68108795 78.25120544 151.68450928 C79.20309753 151.69592957 80.15498962 151.70734985 81.13572693 151.71911621 C81.95922355 151.72506554 82.78272017 151.73101486 83.63117123 151.73714447 C86.38717434 152.04296255 88.50558372 152.80096739 91 154 C92.44702148 155.86572266 92.44702148 155.86572266 93.62109375 158.1640625 C94.07403809 159.02620361 94.52698242 159.88834473 94.99365234 160.77661133 C95.47012207 161.71657959 95.9465918 162.65654785 96.4375 163.625 C97.49800002 165.64366526 98.5619259 167.6605337 99.62890625 169.67578125 C100.45672607 171.24513428 100.45672607 171.24513428 101.30126953 172.84619141 C104.02953668 177.91140483 106.94928829 182.85953314 109.875 187.8125 C114.68501713 195.98720864 119.38915873 204.21131807 124 212.5 C128.55258683 220.68196616 133.19248216 228.80313819 137.9375 236.875 C143.57062372 246.46141459 149.00103684 256.1481136 154.36572266 265.88696289 C159.28616789 274.79182208 164.38165353 283.58447806 169.609375 292.3125 C170.43115234 293.69888672 170.43115234 293.69888672 171.26953125 295.11328125 C171.99039917 296.31658081 171.99039917 296.31658081 172.72583008 297.54418945 C174 300 174 300 176 306 C60.5 306 -55 306 -174 306 C-172.56386092 301.69158276 -171.47293907 298.78934128 -169.234375 295.04296875 C-168.68136719 294.10839844 -168.12835938 293.17382812 -167.55859375 292.2109375 C-166.66333984 290.71433594 -166.66333984 290.71433594 -165.75 289.1875 C-160.72263435 280.68365376 -155.79726527 272.13575698 -151 263.5 C-145.86447161 254.27025844 -140.59786397 245.12761208 -135.25 236.01953125 C-131.07756041 228.8947181 -127.01504756 221.71453859 -123 214.5 C-117.86368611 205.27068598 -112.59787465 196.12763027 -107.25 187.01953125 C-103.07756041 179.8947181 -99.01504756 172.71453859 -95 165.5 C-89.86368611 156.27068598 -84.59787465 147.12763027 -79.25 138.01953125 C-75.07755971 130.89471691 -71.01509629 123.71451235 -67 116.5 C-61.83910758 107.22783933 -56.5526883 98.03874 -51.18408203 88.88549805 C-46.07520044 80.16289509 -41.09672732 71.37035026 -36.13671875 62.5625 C-32.20899873 55.58847269 -28.23472405 48.64136416 -24.2578125 41.6953125 C-22.1481259 38.01032251 -20.04359586 34.32245003 -17.94309998 30.63221741 C-16.50530558 28.10647812 -15.06623562 25.58146655 -13.62710571 23.05648804 C-12.92696542 21.82734393 -12.22738464 20.59788092 -11.52841187 19.36807251 C-7.81026601 12.82697111 -4.04887202 6.34245271 0 0 Z " fill="#FCFCFC" transform="translate(223,39)"/>
</svg>
